HIERARCHY
ROOT RootJoint
{
    OFFSET   0.000000   0.000000   0.000000
    CHANNELS 6 Xposition Yposition Zposition Xrotation Yrotation Zrotation
    JOINT pelvis_lowerback
    {
        OFFSET   0.000000   0.093605   0.000000
        CHANNELS 3 Xrotation Yrotation Zrotation
        JOINT lowerback_torso
        {
            OFFSET   0.000000   0.100000   0.000000
            CHANNELS 3 Xrotation Yrotation Zrotation
            JOINT torso_head
            {
                OFFSET   0.000000   0.282350   0.000000
                CHANNELS 3 Xrotation Yrotation Zrotation
                End Site
                {
                    OFFSET   0.000000   0.192650   0.000000
                }
            }
            JOINT rTorso_Clavicle
            {
                OFFSET  -0.001000   0.157500   0.000000
                CHANNELS 3 Xrotation Yrotation Zrotation
                JOINT rShoulder
                {
                    OFFSET  -0.117647   0.000000   0.000000
                    CHANNELS 3 Xrotation Yrotation Zrotation
                    JOINT rElbow
                    {
                        OFFSET  -0.245000   0.000000   0.000000
                        CHANNELS 3 Xrotation Yrotation Zrotation
                        JOINT rWrist
                        {
                            OFFSET  -0.240000   0.000000   0.000000
                            CHANNELS 3 Xrotation Yrotation Zrotation
                            End Site
                            {
                                OFFSET  -0.116353  -0.002500   0.000000
                            }
                        }
                    }
                }
            }
            JOINT lTorso_Clavicle
            {
                OFFSET   0.001000   0.157500   0.000000
                CHANNELS 3 Xrotation Yrotation Zrotation
                JOINT lShoulder
                {
                    OFFSET   0.117647   0.000000   0.000000
                    CHANNELS 3 Xrotation Yrotation Zrotation
                    JOINT lElbow
                    {
                        OFFSET   0.245000   0.000000   0.000000
                        CHANNELS 3 Xrotation Yrotation Zrotation
                        JOINT lWrist
                        {
                            OFFSET   0.240000   0.000000   0.000000
                            CHANNELS 3 Xrotation Yrotation Zrotation
                            End Site
                            {
                                OFFSET   0.116353  -0.002500   0.000000
                            }
                        }
                    }
                }
            }
        }
    }
    JOINT rHip
    {
        OFFSET  -0.100000  -0.051395   0.000000
        CHANNELS 3 Xrotation Yrotation Zrotation
        JOINT rKnee
        {
            OFFSET   0.000000  -0.410000   0.000000
            CHANNELS 3 Xrotation Yrotation Zrotation
            JOINT rAnkle
            {
                OFFSET   0.000000  -0.390000   0.000000
                CHANNELS 3 Xrotation Yrotation Zrotation
                JOINT rToeJoint
                {
                    OFFSET   0.000000  -0.050000   0.130000
                    CHANNELS 3 Xrotation Yrotation Zrotation
                    End Site
                    {
                        OFFSET  -0.010000   0.002000   0.060000
                    }
                }
            }
        }
    }
    JOINT lHip
    {
        OFFSET   0.100000  -0.051395   0.000000
        CHANNELS 3 Xrotation Yrotation Zrotation
        JOINT lKnee
        {
            OFFSET   0.000000  -0.410000   0.000000
            CHANNELS 3 Xrotation Yrotation Zrotation
            JOINT lAnkle
            {
                OFFSET   0.000000  -0.390000   0.000000
                CHANNELS 3 Xrotation Yrotation Zrotation
                JOINT lToeJoint
                {
                    OFFSET   0.000000  -0.050000   0.130000
                    CHANNELS 3 Xrotation Yrotation Zrotation
                    End Site
                    {
                        OFFSET   0.010000   0.002000   0.060000
                    }
                }
            }
        }
    }
}
MOTION
Frames: 11
Frame Time:   0.008333
 -2.548893   0.845593   4.103248   2.520494  16.347290  -2.112740  19.060673   0.379690   1.077187  -4.270793  -0.147524   2.457971  -6.460454  -6.829781   2.598759  -7.063646   7.416713   9.175273 -31.658144   6.437616  36.649496 -179.769866  87.170163 179.782305   0.983249   6.886176 -20.184779  -0.305725   1.535588  -9.416480  -7.075810   3.372660 -42.651673   0.184776 -69.926492   0.171569  -1.639201  -4.716360  21.901796 -39.589222  -0.515748  -7.973749  50.636942   0.006305  -0.064357 -10.920272   5.327562   3.093751  -1.354557  -0.000840   0.003550 -24.203746  -5.487907   2.298994  51.083806   0.008649  -0.005792 -30.050189  -0.329585   3.921841   0.981477  -0.000394   0.002235
 -2.547722   0.841074   4.100709   2.371148  16.174979  -2.131561  19.082048   0.324656   1.118821  -4.285902  -0.376716   2.699877  -6.531483  -6.674484   2.581861  -6.923625   7.465948   9.465363 -31.607153   6.017229  36.859397 -179.797159  86.855450 179.808105   0.922838   6.932779 -20.616165  -0.363320   0.715885  -9.576971  -7.323693   2.490266 -42.598473   0.193554 -71.054993   0.184599  -1.714998  -4.728834  22.114291 -40.710698  -0.422942  -8.577117  52.908523   0.008970  -0.065711 -10.898192   4.672022   3.103964  -1.418620  -0.000894   0.003583 -24.953286  -5.291168   2.256956  52.667145   0.008552  -0.004989 -30.735174  -0.387406   4.093911   0.944703  -0.000298   0.001788
 -2.546670   0.836620   4.098228   2.255024  16.049665  -2.173441  19.113249   0.273568   1.179800  -4.312581  -0.612737   2.948819  -6.601518  -6.524388   2.559870  -6.798728   7.516978   9.739134 -31.563444   5.622928  37.053365 -179.821918  86.565852 179.831587   0.860659   6.968154 -21.072581  -0.457543  -0.098113  -9.691338  -7.587876   1.623652 -42.533366   0.199586 -72.130742   0.194352  -1.744497  -4.839899  22.251949 -41.725167  -0.295921  -9.201006  55.135328   0.011891  -0.065889 -10.868439   4.057829   3.111857  -1.449376  -0.000837   0.003199 -25.710634  -5.123067   2.235504  54.185975   0.008471  -0.003975 -31.382267  -0.470968   4.251856   0.917405  -0.000226   0.001430
 -2.545706   0.832292   4.095834   2.174278  15.914994  -2.236412  19.144062   0.231133   1.250478  -4.344020  -0.835709   3.198994  -6.667644  -6.383060   2.538969  -6.684086   7.575527  10.000059 -31.521992   5.259243  37.239763 -179.843846  86.296138 179.852424   0.800616   7.001348 -21.507651  -0.567402  -0.876515  -9.780591  -7.852233   0.798521 -42.465954   0.203164 -73.144536   0.200951  -1.746550  -5.008681  22.381837 -42.630969  -0.152844  -9.818608  57.242627   0.014098  -0.065518 -10.839230   3.484467   3.118630  -1.474891  -0.000775   0.002828 -26.460076  -4.962909   2.239418  55.626009   0.008210  -0.003234 -31.993009  -0.544989   4.399304   0.897216  -0.000173   0.001144
 -2.544822   0.828116   4.093531   2.129548  15.753607  -2.315846  19.172681   0.198530   1.325753  -4.377069  -1.039896   3.445457  -6.730115  -6.250835   2.519803  -6.578236   7.639492  10.247873 -31.482096   4.923854  37.418796 -179.863117  86.044348 179.870743   0.743523   7.035047 -21.914724  -0.680103  -1.609703  -9.853593  -8.107115   0.021881 -42.400046   0.204872 -74.095958   0.205013  -1.733808  -5.204337  22.518281 -43.438078  -0.003354 -10.421343  59.222331   0.015397  -0.064823 -10.811626   2.949094   3.124514  -1.497957  -0.000716   0.002502 -27.198005  -4.802933   2.266331  56.983396   0.007756  -0.002814 -32.567591  -0.598994   4.538267   0.882638  -0.000132   0.000915
 -2.544019   0.824109   4.091315   2.119818  15.562224  -2.407767  19.200014   0.175326   1.402862  -4.409150  -1.224604   3.685032  -6.789029  -6.127377   2.502338  -6.480547   7.705976  10.481944 -31.443920   4.613827  37.589451 -179.880044  85.809300 179.886825   0.689216   7.068925 -22.296978  -0.789180  -2.295042  -9.915275  -8.348013  -0.704831 -42.337359   0.205150 -74.986784   0.207050  -1.713412  -5.409810  22.662215 -44.155235   0.147262 -11.005074  61.079307   0.015873  -0.063808 -10.785773   2.449154   3.129654  -1.519187  -0.000660   0.002219 -27.923801  -4.641022   2.313326  58.258373   0.007145  -0.002638 -33.106207  -0.630943   4.670039   0.872698  -0.000102   0.000732
 -2.543306   0.820279   4.089182   2.143499  15.342324  -2.508661  19.227476   0.160624   1.479747  -4.438243  -1.390729   3.915601  -6.844332  -6.012191   2.486422  -6.390500   7.772762  10.701990 -31.407685   4.326581  37.750986 -179.894943  85.589981 179.900964   0.637327   7.102130 -22.658506  -0.891431  -2.932912  -9.968676  -8.573070  -1.382547 -42.278635   0.204316 -75.819686   0.207462  -1.689448  -5.615689  22.812000 -44.790069   0.295696 -11.567348  62.820782   0.015685  -0.062443 -10.761609   1.982308   3.134150  -1.538740  -0.000605   0.001973 -28.637895  -4.477153   2.377481  59.452879   0.006426  -0.002620 -33.609295  -0.641708   4.795580   0.866723  -0.000079   0.000586
 -2.542649   0.816456   4.087112   2.144092  15.162127  -2.519518  19.213539   0.175351   1.479924  -4.343159  -1.575244   4.136337  -6.966602  -5.840540   2.408188  -6.300622   7.840741  10.859770 -31.571368   3.978761  37.893817 -179.903576  85.343417 179.908960   0.523816   7.064323 -22.928558  -0.928169  -3.693024  -9.939198  -8.870583  -2.173012 -41.999575   0.214819 -76.756719   0.221486  -1.769240  -5.596492  22.941770 -45.344739   0.518070 -12.260463  64.575373   0.016242  -0.061884 -10.560539   1.512577   3.137097  -1.565657  -0.000602   0.001860 -29.307867  -4.243055   2.394064  60.580340   0.006168  -0.001929 -34.069042  -0.726572   4.872197   0.854166  -0.000063   0.000469
 -2.542053   0.812741   4.085161   2.158998  14.981733  -2.535907  19.195377   0.191472   1.491524  -4.263447  -1.758336   4.354464  -7.075397  -5.674648   2.326871  -6.236760   7.908646  10.990089 -31.741818   3.661829  38.016449 -179.911398  85.109132 179.916161   0.419643   7.043330 -23.219955  -1.000970  -4.431923  -9.854258  -9.180265  -2.941919 -41.706836   0.222731 -77.651627   0.232502  -1.806800  -5.661104  23.037066 -45.824318   0.753294 -12.968338  66.234880   0.016661  -0.061022 -10.369117   1.072731   3.139917  -1.572827  -0.000517   0.001560 -29.960867  -4.009308   2.427860  61.656416   0.005900  -0.001319 -34.507823  -0.815578   4.935343   0.842644  -0.000051   0.000375
 -2.541511   0.809174   4.083354   2.193046  14.777742  -2.564739  19.168139   0.208738   1.513948  -4.204574  -1.931104   4.572513  -7.175302  -5.518887   2.250370  -6.186548   7.978407  11.103911 -31.907802   3.372696  38.127348 -179.918505  84.888027 179.922691   0.326254   7.039545 -23.504989  -1.089399  -5.131701  -9.746245  -9.485919  -3.671916 -41.418872   0.228285 -78.495444   0.240397  -1.817580  -5.778162  23.147866 -46.241201   0.989218 -13.664513  67.789005   0.016620  -0.059863 -10.190131   0.661598   3.143004  -1.577722  -0.000439   0.001298 -30.592552  -3.778751   2.484070  62.675222   0.005511  -0.000956 -34.928724  -0.885729   4.991635   0.832847  -0.000042   0.000300
 -2.541027   0.805775   4.081698   2.245032  14.544976  -2.603738  19.132059   0.226926   1.544412  -4.162683  -2.091656   4.788037  -7.268841  -5.373313   2.179701  -6.145106   8.048194  11.206442 -32.066292   3.106946  38.229376 -179.925014  84.680103 179.928672   0.241070   7.046968 -23.778760  -1.181855  -5.788726  -9.629343  -9.778843  -4.359304 -41.143079   0.232119 -79.287648   0.245795  -1.813594  -5.921137  23.276026 -46.603706   1.219673 -14.340241  69.242534   0.016101  -0.058415 -10.023073   0.277393   3.146392  -1.581801  -0.000371   0.001079 -31.199281  -3.550769   2.561154  63.633770   0.005007  -0.000806 -35.331764  -0.932051   5.043134   0.824864  -0.000034   0.000240
